<?xml version="1.0" standalone="no"?>
<!DOCTYPE svg PUBLIC "-//W3C//DTD SVG 20010904//EN"
 "http://www.w3.org/TR/2001/REC-SVG-20010904/DTD/svg10.dtd">
<svg version="1.0" xmlns="http://www.w3.org/2000/svg"
 width="612.000000pt" height="612.000000pt" viewBox="0 0 612.000000 612.000000"
 preserveAspectRatio="xMidYMid meet">
<metadata>
Created by potrace 1.11, written by Peter Selinger 2001-2013
</metadata>
<g transform="translate(0.000000,612.000000) scale(0.100000,-0.100000)"
fill="#000000" stroke="none">
<path d="M2652 5390 c-84 -30 -190 -84 -277 -140 -108 -71 -277 -242 -351
-355 -234 -361 -265 -809 -83 -1203 21 -47 39 -86 39 -88 0 -2 -26 -4 -57 -4
-186 0 -435 -83 -619 -205 -378 -252 -593 -708 -545 -1155 18 -168 28 -178 23
-25 -6 206 26 355 115 523 144 273 418 474 719 526 123 22 278 20 394 -4 52
-10 95 -18 96 -17 1 1 9 27 19 57 27 86 103 223 170 308 l62 78 -44 49 c-157
173 -253 388 -271 604 -27 320 75 601 297 821 108 107 200 168 361 238 41 17
9 12 -48 -8z"/>
<path d="M3400 5407 c3 -2 38 -19 78 -36 102 -43 199 -108 291 -196 326 -311
409 -791 207 -1197 -44 -88 -130 -210 -184 -262 l-30 -28 64 -82 c69 -86 140
-216 169 -306 10 -30 18 -56 19 -57 1 -1 44 7 96 17 225 47 457 16 664 -86
261 -129 443 -348 533 -641 25 -82 27 -101 27 -278 1 -184 1 -187 14 -125 8
36 14 136 15 225 2 172 -10 250 -58 402 -116 358 -418 661 -783 783 -103 34
-241 60 -323 60 -33 0 -59 2 -59 5 0 3 14 33 31 66 85 169 136 413 126 599 -8
126 -20 198 -53 309 -106 353 -377 650 -719 787 -84 34 -133 50 -125 41z"/>
<path d="M2925 4220 c-202 -24 -419 -107 -574 -219 -36 -25 -69 -49 -75 -53
-10 -7 81 -133 127 -177 l26 -23 64 46 c81 58 207 118 312 148 70 20 102 23
255 23 153 0 185 -3 255 -23 101 -29 220 -86 310 -146 l70 -48 47 52 c27 28
62 72 79 96 35 52 40 43 -61 113 -194 133 -411 205 -655 215 -60 3 -141 1
-180 -4z"/>
<path d="M3461 3729 c-82 -14 -162 -62 -240 -145 -38 -41 -75 -74 -83 -74 -8
0 -44 -18 -81 -40 -36 -22 -76 -40 -89 -40 -13 0 -46 16 -73 36 -70 50 -197
111 -260 124 -63 13 -147 10 -152 -6 -2 -6 20 -21 49 -34 29 -12 80 -42 113
-65 67 -48 136 -126 117 -133 -7 -2 -35 -21 -61 -43 l-49 -38 -62 25 c-95 38
-187 57 -255 51 -108 -10 -128 -34 -45 -54 64 -15 166 -66 215 -108 l39 -32
-31 -59 -32 -59 -79 4 c-44 1 -106 -2 -138 -9 -63 -13 -144 -46 -144 -58 0 -5
44 -13 98 -19 55 -6 124 -21 157 -34 l60 -24 6 -100 c8 -117 31 -187 87 -260
84 -111 205 -169 354 -170 l88 0 20 -50 c28 -70 39 -130 40 -202 0 -99 31 -80
71 42 7 24 12 83 12 145 l-2 105 60 31 59 32 31 -37 c39 -47 93 -156 110 -220
23 -93 50 -54 51 73 0 76 -16 150 -48 225 -13 29 -24 56 -24 60 0 9 80 115 90
119 22 8 131 -123 172 -204 22 -46 45 -84 49 -84 16 0 21 71 9 137 -14 80 -60
183 -123 275 -51 73 -52 95 -8 157 11 16 30 50 41 76 13 31 44 70 90 112 100
93 133 163 137 292 l3 96 -19 -55 c-34 -105 -73 -155 -143 -184 -49 -21 -48
-21 -42 13 6 29 -18 91 -36 91 -15 0 -80 61 -80 75 0 22 -42 45 -82 45 -46 0
-48 11 -9 72 35 56 64 76 148 104 61 21 62 22 32 28 -37 7 -46 7 -118 -5z
m-385 -509 c122 -60 224 -185 253 -311 12 -52 14 -149 3 -149 -4 0 -17 23 -30
50 -63 136 -257 334 -398 406 -41 21 -74 39 -74 42 0 2 40 3 89 0 75 -3 99 -9
157 -38z m-240 -154 c170 -45 301 -197 311 -361 l5 -70 -28 50 c-73 135 -237
298 -357 356 -26 13 -47 27 -47 31 0 12 59 9 116 -6z m-79 -217 c107 -54 192
-171 208 -285 l7 -49 -42 64 c-69 106 -207 240 -305 295 l-30 17 48 -4 c28 -3
77 -19 114 -38z"/>
<path d="M1833 3163 c-15 -53 -8 -313 10 -406 78 -390 335 -721 691 -888 48
-22 90 -38 95 -35 10 7 65 154 75 201 6 29 4 31 -75 69 -278 134 -475 393
-540 711 -7 33 -12 122 -11 197 l1 137 -67 14 c-37 9 -90 18 -119 22 -51 7
-52 6 -60 -22z"/>
<path d="M4210 3184 c-14 -3 -57 -11 -96 -20 l-72 -15 1 -142 c0 -186 -25
-300 -97 -447 -100 -206 -291 -391 -484 -471 -28 -12 -52 -25 -52 -29 0 -30
67 -207 86 -229 2 -2 50 19 107 47 340 166 584 477 668 852 23 104 33 279 22
380 -9 81 -13 85 -83 74z"/>
<path d="M2791 1986 c-6 -28 -29 -90 -50 -138 -266 -599 -999 -801 -1537 -423
-73 51 -75 52 -34 14 113 -104 279 -198 437 -249 364 -117 750 -64 1069 146
107 70 270 231 337 331 l48 73 49 -73 c167 -248 417 -421 729 -505 88 -23 113
-26 291 -26 178 0 203 3 291 26 183 49 321 115 459 219 104 79 133 114 36 45
-187 -134 -372 -191 -611 -189 -171 1 -290 29 -433 99 -259 129 -434 328 -524
599 l-34 100 -55 -13 c-73 -18 -315 -18 -395 0 l-62 14 -11 -50z"/>
</g>
</svg>
